<svg xmlns="http://www.w3.org/2000/svg" viewBox="0 0 612 612">
<style type="text/css">
	.st0{fill:#FF4800;}
	.st1{fill:#FFFFFF;}
	.st2{fill:#231F20;}
	.st3{fill:#009245;}
	.st4{fill:none;}
</style>
<g>
	<g>
		<g>
			<path class="st3" d="M715.8,244.2c-2.4,22.8-12.4,97-43.2,127.8c-20.8,20.8-63.8,34.8-97.4,43.1c70.7-43.6,112-123.1,114-127.1
				c1.4-2.8,0.3-6.3-2.5-7.7c-2.8-1.4-6.3-0.3-7.7,2.5c-0.6,1.1-54.5,105.2-141.8,138.5C542.1,394,558,317.5,588,287.5
				C618.8,256.7,693,246.6,715.8,244.2z"/>
		</g>
		<g>
			<path class="st0" d="M627.6,251.6c-18.5,6.8-35.8,15.8-47.7,27.7c-29.8,29.8-46,97.9-52.5,131.2c-1.6-0.2-3.1-0.4-4.7-0.6
				c-2.4-14.6-6.4-29.1-10.9-43.2c-10.2-32-27-64.9-55.3-84.3c-2.8-1.9-6.3,1.8-4.6,4.6c16.8,27.4,32.8,54.8,41.7,85.9
				c3.4,11.8,5.3,23.6,6,35.7c-111.4,0.3-201.7,90.7-201.7,202.2c0,33.8,8.3,65.7,23,93.7H274c-52.6,0-87.3-54.6-65.1-102.2
				l233.3-500.6c22.9-49.1,92.7-49.1,115.6,0L627.6,251.6z"/>
		</g>
		<g>
			<path class="st0" d="M726,704.6h-46.7c14.7-28,23-59.9,23-93.7c0-82.9-49.8-154.1-121.1-185.3c3.7-1,7.6-2,11.5-3.1
				c32-8.9,68.4-22.7,88.1-42.4c1.5-1.5,3-3.2,4.5-4.9l105.9,227.1C813.3,650.1,778.6,704.6,726,704.6z"/>
		</g>
		<g>
			<path class="st4" d="M588,287.5c-30.8,30.8-46.8,110.5-51.2,135.8c25.3-4.4,105-20.4,135.8-51.2c30.8-30.8,40.8-105,43.2-127.8
				C693,246.6,618.8,256.7,588,287.5z"/>
		</g>
	</g>
	<g>
		<g>
			<path d="M78.5,765.3H59.7L22,852.5h20.7l8.1-18.8h0l7.4-17.1h0l2.2-5.1l1.1-2.6l7.7-17.7l7.6,17.7l10.7,24.8l2.8,6.4l5.3,12.4
				h20.7L78.5,765.3z"/>
		</g>
		<g>
			<path d="M410.7,765.3h-18.8l-37.7,87.2h20.7l8.1-18.8h0l7.4-17.1h0l2.2-5.1l1.1-2.6l7.7-17.7l7.6,17.7l10.7,24.8l2.8,6.4
				l5.3,12.4h20.7L410.7,765.3z"/>
		</g>
		<g>
			<path d="M132.6,852.5v-87.2H152v69.9h37.2v17.3H132.6z"/>
		</g>
		<g>
			<path d="M209.7,765.3h19.5v87.2h-19.5V765.3z"/>
		</g>
		<g>
			<path d="M317.9,765.3h19.5v87.2h-19.5l-41.6-54.7v54.7h-19.5v-87.2h18.2l42.8,56.2V765.3z"/>
		</g>
		<g>
			<path d="M560.2,808.1h19.6v31c-8.7,9.7-20.6,14.5-35.9,14.5c-12.8,0-23.6-4.2-32.3-12.7c-8.7-8.5-13-19.2-13-32.1
				c0-12.9,4.4-23.7,13.3-32.4c8.9-8.7,19.6-13,32.1-13c12.5,0,23.4,4.1,32.6,12.4l-10.1,14.6c-3.9-3.4-7.5-5.8-10.8-7.1
				c-3.3-1.3-6.8-1.9-10.7-1.9c-7.4,0-13.6,2.5-18.7,7.6c-5.1,5-7.6,11.7-7.6,19.9c0,8.2,2.4,14.8,7.3,19.8c4.9,5,10.7,7.4,17.4,7.4
				c6.7,0,12.4-1.3,16.8-3.9V808.1z"/>
		</g>
		<g>
			<path d="M674.1,794.2c0,14-5.5,23-16.6,27.1l22.1,31.2h-24l-19.3-27.8h-13.5v27.8h-19.5v-87.2h33.1c13.6,0,23.2,2.3,29,6.9
				C671.2,776.7,674.1,784.1,674.1,794.2z M650.6,804.6c2.4-2.2,3.6-5.6,3.6-10.3c0-4.7-1.2-7.9-3.7-9.7c-2.5-1.7-6.9-2.6-13.1-2.6
				h-14.6v25.8H637C643.7,807.8,648.2,806.7,650.6,804.6z"/>
		</g>
		<g>
			<path d="M772.8,840.5c-8.8,8.6-19.7,12.9-32.6,12.9c-12.9,0-23.8-4.3-32.6-12.9c-8.8-8.6-13.2-19.3-13.2-32.1
				c0-12.8,4.4-23.5,13.2-32.1c8.8-8.6,19.7-12.9,32.6-12.9c12.9,0,23.8,4.3,32.6,12.9c8.8,8.6,13.2,19.3,13.2,32.1
				C786,821.1,781.6,831.8,772.8,840.5z M766.2,808.4c0-7.8-2.5-14.4-7.5-19.9c-5-5.5-11.1-8.2-18.4-8.2c-7.3,0-13.4,2.7-18.4,8.2
				c-5,5.5-7.5,12.1-7.5,19.9c0,7.8,2.5,14.4,7.5,19.8c5,5.4,11.1,8.2,18.4,8.2c7.3,0,13.4-2.7,18.4-8.2
				C763.7,822.8,766.2,816.2,766.2,808.4z"/>
		</g>
		<g>
			<path d="M831.9,830c3.2,4,7.6,6.1,13.1,6.1c5.5,0,9.8-2,13-6.1c3.2-4,4.8-9.5,4.8-16.5v-48.2h19.5v48.8
				c0,12.6-3.5,22.4-10.5,29.1c-7,6.8-15.9,10.2-26.8,10.2c-10.9,0-19.9-3.4-26.9-10.2c-7-6.8-10.5-16.5-10.5-29.1v-48.8H827v48.2
				C827,820.4,828.6,825.9,831.9,830z"/>
		</g>
		<g>
			<path d="M968.8,773.1c6.1,5.2,9.2,13.2,9.2,24c0,10.8-3.1,18.7-9.4,23.7c-6.3,5-15.9,7.5-28.8,7.5h-11.6v24.3h-19.5v-87.2h30.8
				C953,765.3,962.7,767.9,968.8,773.1z M954.5,807.4c2.3-2.6,3.5-6.4,3.5-11.5c0-5-1.5-8.6-4.6-10.7c-3-2.1-7.8-3.2-14.2-3.2h-11.1
				v29.3h13.1C947.8,811.3,952.2,810,954.5,807.4z"/>
		</g>
	</g>
	<g>
		<path d="M163.8,900c0-6.6,0-7.8-0.1-9.2c-0.1-1.5-0.4-2.2-1.9-2.5c-0.3-0.1-1.1-0.1-1.7-0.1c-0.5,0-0.7-0.1-0.7-0.4
			c0-0.3,0.3-0.4,1-0.4c2.3,0,5,0.1,6.2,0.1c1.3,0,4.1-0.1,6.7-0.1c5.4,0,12.7,0,17.4,4.9c2.2,2.3,4.2,5.9,4.2,11
			c0,5.5-2.3,9.6-4.7,12.1c-2,2-6.5,5.1-14.5,5.1c-1.6,0-3.3-0.1-5-0.3c-1.6-0.1-3.2-0.3-4.3-0.3c-0.5,0-1.4,0-2.5,0
			c-1,0-2.1,0.1-3,0.1c-0.6,0-0.9-0.1-0.9-0.4c0-0.2,0.2-0.3,0.7-0.3c0.6,0,1.2-0.1,1.6-0.2c0.9-0.2,1.1-1.1,1.3-2.4
			c0.2-1.8,0.2-5.3,0.2-9.2V900z M169.2,904.8c0,4.6,0,7.9,0.1,8.8c0,1.1,0.1,2.8,0.5,3.3c0.6,0.8,2.3,1.7,5.7,1.7
			c4.4,0,7.4-0.9,10-3.1c2.8-2.4,3.6-6.3,3.6-10.8c0-5.5-2.3-9.1-4.2-10.8c-4-3.8-8.9-4.3-12.3-4.3c-0.9,0-2.5,0.1-2.8,0.3
			c-0.4,0.2-0.5,0.4-0.5,0.9c0,1.5,0,5.2,0,8.7V904.8z"/>
		<path d="M204,900c0-6.6,0-7.8-0.1-9.2c-0.1-1.5-0.4-2.2-1.9-2.5c-0.3-0.1-1.1-0.1-1.7-0.1c-0.5,0-0.7-0.1-0.7-0.4
			c0-0.3,0.3-0.4,1-0.4c1.2,0,2.4,0,3.5,0c1.1,0,2.1,0.1,2.7,0.1c1.4,0,10,0,10.8,0c0.8-0.1,1.5-0.2,1.9-0.3c0.2,0,0.5-0.2,0.7-0.2
			s0.3,0.2,0.3,0.4c0,0.3-0.2,0.8-0.3,2.8c0,0.4-0.1,2.3-0.2,2.9c0,0.2-0.1,0.5-0.4,0.5c-0.3,0-0.4-0.2-0.4-0.6c0-0.3,0-1-0.3-1.6
			c-0.3-0.8-0.7-1.3-2.9-1.6c-0.7-0.1-5.3-0.2-6.2-0.2c-0.2,0-0.3,0.1-0.3,0.4v11c0,0.3,0,0.5,0.3,0.5c1,0,5.9,0,6.9-0.1
			c1-0.1,1.7-0.2,2.1-0.7c0.3-0.3,0.5-0.6,0.7-0.6c0.2,0,0.3,0.1,0.3,0.3c0,0.3-0.2,1-0.3,3.2c0,0.9-0.2,2.6-0.2,2.9
			c0,0.3,0,0.8-0.4,0.8c-0.3,0-0.4-0.2-0.4-0.4c0-0.4,0-1-0.2-1.6c-0.2-0.9-0.8-1.5-2.4-1.7c-0.8-0.1-5.1-0.1-6.2-0.1
			c-0.2,0-0.3,0.2-0.3,0.4v3.4c0,1.5,0,5.5,0,6.7c0.1,3,0.8,3.6,5.2,3.6c1.1,0,3,0,4.1-0.5c1.1-0.5,1.7-1.4,2-3.2
			c0.1-0.5,0.2-0.7,0.5-0.7c0.3,0,0.3,0.3,0.3,0.8c0,1-0.3,3.9-0.6,4.8c-0.3,1.1-0.7,1.1-2.3,1.1c-3.3,0-5.6-0.1-7.5-0.1
			c-1.9-0.1-3.2-0.1-4.5-0.1c-0.5,0-1.4,0-2.5,0c-1,0-2.1,0.1-3,0.1c-0.6,0-0.9-0.1-0.9-0.4c0-0.2,0.2-0.3,0.7-0.3
			c0.6,0,1.2-0.1,1.6-0.2c0.9-0.2,1.1-1.1,1.3-2.4c0.2-1.8,0.2-5.3,0.2-9.2V900z"/>
		<path d="M233.1,908.9c-0.2,0-0.3,0.1-0.4,0.3l-2.3,6.2c-0.4,1.1-0.6,2.1-0.6,2.6c0,0.8,0.4,1.3,1.7,1.3h0.7c0.5,0,0.7,0.1,0.7,0.3
			c0,0.3-0.3,0.4-0.7,0.4c-1.4,0-3.3-0.1-4.6-0.1c-0.5,0-2.9,0.1-5.1,0.1c-0.6,0-0.8-0.1-0.8-0.4c0-0.3,0.2-0.3,0.5-0.3
			c0.4,0,1,0,1.3-0.1c2-0.3,2.8-1.7,3.7-3.9l10.9-27.2c0.5-1.3,0.8-1.7,1.2-1.7c0.4,0,0.7,0.4,1.1,1.4c1,2.4,8,20.1,10.8,26.7
			c1.6,3.9,2.9,4.5,3.8,4.7c0.7,0.1,1.3,0.2,1.8,0.2c0.3,0,0.6,0,0.6,0.3c0,0.3-0.4,0.4-2,0.4c-1.6,0-4.7,0-8.2-0.1
			c-0.8,0-1.3,0-1.3-0.3c0-0.3,0.2-0.3,0.6-0.4c0.3-0.1,0.6-0.5,0.4-1l-3.5-9.2c-0.1-0.2-0.2-0.3-0.4-0.3H233.1z M242,906.7
			c0.2,0,0.3-0.1,0.2-0.3l-3.9-10.7c0-0.2-0.1-0.4-0.2-0.4c-0.1,0-0.2,0.2-0.3,0.4l-4,10.7c0,0.2,0,0.3,0.2,0.3H242z"/>
		<path d="M267.2,907.6c0,5.6,0,8.5,0.9,9.3c0.7,0.7,1.9,1,5.3,1c2.3,0,4,0,5.1-1.2c0.5-0.6,1-1.8,1.1-2.6c0-0.4,0.1-0.7,0.5-0.7
			c0.3,0,0.3,0.2,0.3,0.7c0,0.5-0.3,3.7-0.7,5c-0.3,1-0.5,1.2-2.7,1.2c-3.1,0-5.4-0.1-7.3-0.1c-2-0.1-3.5-0.1-5.3-0.1
			c-0.5,0-1.4,0-2.5,0c-1,0-2.1,0.1-3,0.1c-0.6,0-0.9-0.1-0.9-0.4c0-0.2,0.2-0.3,0.7-0.3c0.6,0,1.2-0.1,1.6-0.2
			c0.9-0.2,1.1-1.1,1.3-2.4c0.2-1.8,0.2-5.3,0.2-9.2V900c0-6.6,0-7.8-0.1-9.2c-0.1-1.5-0.4-2.2-1.9-2.5c-0.3-0.1-0.9-0.1-1.4-0.1
			c-0.5,0-0.7-0.1-0.7-0.4c0-0.3,0.3-0.4,1-0.4c2,0,4.8,0.1,5.9,0.1c1,0,4.2-0.1,5.9-0.1c0.6,0,0.9,0.1,0.9,0.4
			c0,0.3-0.3,0.4-0.8,0.4c-0.5,0-1.2,0-1.7,0.1c-1.2,0.2-1.5,1-1.6,2.5c-0.1,1.4-0.1,2.6-0.1,9.2V907.6z"/>
		<path d="M302.6,887.6c0.1-0.7,0.4-1.1,0.7-1.1c0.3,0,0.6,0.2,1.2,1.3l11.8,24.5l11.8-24.8c0.3-0.7,0.6-1,1-1
			c0.4,0,0.7,0.4,0.8,1.3l3.9,26.8c0.4,2.7,0.8,4,2.1,4.4c1.3,0.4,2.1,0.4,2.7,0.4c0.4,0,0.7,0,0.7,0.3c0,0.3-0.5,0.5-1.1,0.5
			c-1.1,0-7.1-0.1-8.8-0.3c-1-0.1-1.3-0.2-1.3-0.5c0-0.2,0.2-0.3,0.5-0.5c0.3-0.1,0.4-0.7,0.2-1.9l-2.6-19.1h-0.2l-9.5,19.7
			c-1,2-1.2,2.4-1.6,2.4c-0.4,0-0.8-0.9-1.5-2.2c-1-2-4.5-8.6-5-9.9c-0.4-0.9-3-6.4-4.5-9.6h-0.2l-2.3,17.3c-0.1,0.8-0.1,1.3-0.1,2
			c0,0.8,0.6,1.2,1.3,1.4c0.8,0.2,1.4,0.2,1.8,0.2c0.3,0,0.7,0.1,0.7,0.3c0,0.4-0.4,0.5-1,0.5c-1.8,0-3.8-0.1-4.6-0.1
			c-0.8,0-2.9,0.1-4.3,0.1c-0.4,0-0.8-0.1-0.8-0.5c0-0.2,0.3-0.3,0.7-0.3c0.3,0,0.7,0,1.3-0.1c1.2-0.3,1.6-2,1.8-3.4L302.6,887.6z"
			/>
		<path d="M348.5,908.9c-0.2,0-0.3,0.1-0.4,0.3l-2.3,6.2c-0.4,1.1-0.6,2.1-0.6,2.6c0,0.8,0.4,1.3,1.7,1.3h0.7c0.5,0,0.7,0.1,0.7,0.3
			c0,0.3-0.3,0.4-0.7,0.4c-1.4,0-3.3-0.1-4.6-0.1c-0.5,0-2.9,0.1-5.1,0.1c-0.6,0-0.8-0.1-0.8-0.4c0-0.3,0.2-0.3,0.5-0.3
			c0.4,0,1,0,1.3-0.1c2-0.3,2.8-1.7,3.7-3.9l10.9-27.2c0.5-1.3,0.8-1.7,1.2-1.7c0.4,0,0.7,0.4,1.1,1.4c1,2.4,8,20.1,10.8,26.7
			c1.7,3.9,2.9,4.5,3.8,4.7c0.7,0.1,1.3,0.2,1.8,0.2c0.3,0,0.6,0,0.6,0.3c0,0.3-0.4,0.4-2,0.4c-1.6,0-4.7,0-8.2-0.1
			c-0.8,0-1.3,0-1.3-0.3c0-0.3,0.2-0.3,0.6-0.4c0.3-0.1,0.6-0.5,0.4-1l-3.5-9.2c-0.1-0.2-0.2-0.3-0.4-0.3H348.5z M357.3,906.7
			c0.2,0,0.3-0.1,0.2-0.3l-3.9-10.7c0-0.2-0.1-0.4-0.2-0.4c-0.1,0-0.2,0.2-0.3,0.4l-4,10.7c0,0.2,0,0.3,0.2,0.3H357.3z"/>
		<path d="M382.4,901.9h0.2c1.5-1.6,7.8-8.1,9.1-9.5c1.2-1.4,2.2-2.5,2.2-3.3c0-0.5-0.2-0.8-0.6-0.9c-0.4-0.1-0.6-0.2-0.6-0.4
			c0-0.3,0.2-0.4,0.7-0.4c0.9,0,3.3,0.1,4.5,0.1c1.3,0,3.7-0.1,5.1-0.1c0.4,0,0.7,0.1,0.7,0.4c0,0.3-0.2,0.4-0.7,0.4
			c-0.6,0-1.7,0.2-2.5,0.5c-1.3,0.5-2.8,1.4-4.7,3.3c-1.3,1.3-7.9,7.8-9.4,9.4c1.6,2,10.1,11.2,11.8,12.8c1.9,1.8,3.9,3.8,6.2,4.7
			c1.3,0.5,2.2,0.7,2.7,0.7c0.3,0,0.6,0.1,0.6,0.3c0,0.3-0.2,0.4-1,0.4h-3.8c-1.3,0-2.1,0-3-0.1c-2.3-0.2-3.5-1.2-5.4-2.8
			c-1.9-1.7-10.5-11.7-11.4-13l-0.5-0.7h-0.2v3.9c0,4,0,7.4,0.1,9.3c0.1,1.2,0.5,2.2,1.6,2.3c0.6,0.1,1.6,0.2,2.1,0.2
			c0.3,0,0.6,0.1,0.6,0.3c0,0.3-0.3,0.4-0.8,0.4c-2.4,0-5.2-0.1-6.2-0.1c-1,0-3.7,0.1-5.5,0.1c-0.6,0-0.9-0.1-0.9-0.4
			c0-0.2,0.2-0.3,0.7-0.3c0.6,0,1.2-0.1,1.6-0.2c0.9-0.2,1.1-1.1,1.3-2.4c0.2-1.8,0.2-5.3,0.2-9.2V900c0-6.6,0-7.8-0.1-9.2
			c-0.1-1.5-0.4-2.2-1.9-2.5c-0.3-0.1-1.1-0.1-1.7-0.1c-0.5,0-0.7-0.1-0.7-0.4c0-0.3,0.3-0.4,1-0.4c2.3,0,5,0.1,6.1,0.1
			c1,0,3.8-0.1,5.3-0.1c0.6,0,0.9,0.1,0.9,0.4c0,0.3-0.3,0.4-0.6,0.4c-0.4,0-0.7,0-1.2,0.1c-1.2,0.2-1.5,1-1.6,2.5
			c-0.1,1.4-0.1,2.6-0.1,9.2V901.9z"/>
		<path d="M410.4,900c0-6.6,0-7.8-0.1-9.2c-0.1-1.5-0.4-2.2-1.9-2.5c-0.3-0.1-1.1-0.1-1.7-0.1c-0.5,0-0.7-0.1-0.7-0.4
			c0-0.3,0.3-0.4,1-0.4c1.2,0,2.4,0,3.5,0c1.1,0,2.1,0.1,2.7,0.1c1.4,0,10,0,10.8,0c0.8-0.1,1.5-0.2,1.9-0.3c0.2,0,0.5-0.2,0.7-0.2
			s0.3,0.2,0.3,0.4c0,0.3-0.2,0.8-0.3,2.8c0,0.4-0.1,2.3-0.2,2.9c0,0.2-0.1,0.5-0.4,0.5c-0.3,0-0.4-0.2-0.4-0.6c0-0.3,0-1-0.3-1.6
			c-0.3-0.8-0.7-1.3-2.9-1.6c-0.7-0.1-5.3-0.2-6.2-0.2c-0.2,0-0.3,0.1-0.3,0.4v11c0,0.3,0,0.5,0.3,0.5c1,0,5.9,0,6.9-0.1
			c1-0.1,1.7-0.2,2.1-0.7c0.3-0.3,0.5-0.6,0.7-0.6c0.2,0,0.3,0.1,0.3,0.3c0,0.3-0.2,1-0.3,3.2c0,0.9-0.2,2.6-0.2,2.9
			c0,0.3,0,0.8-0.4,0.8c-0.3,0-0.4-0.2-0.4-0.4c0-0.4,0-1-0.2-1.6c-0.2-0.9-0.8-1.5-2.4-1.7c-0.8-0.1-5.1-0.1-6.2-0.1
			c-0.2,0-0.3,0.2-0.3,0.4v3.4c0,1.5,0,5.5,0,6.7c0.1,3,0.8,3.6,5.2,3.6c1.1,0,3,0,4.1-0.5c1.1-0.5,1.6-1.4,2-3.2
			c0.1-0.5,0.2-0.7,0.5-0.7c0.3,0,0.3,0.3,0.3,0.8c0,1-0.3,3.9-0.6,4.8c-0.3,1.1-0.7,1.1-2.3,1.1c-3.3,0-5.6-0.1-7.5-0.1
			c-1.9-0.1-3.2-0.1-4.5-0.1c-0.5,0-1.4,0-2.5,0c-1,0-2.1,0.1-3,0.1c-0.6,0-0.9-0.1-0.9-0.4c0-0.2,0.2-0.3,0.7-0.3
			c0.6,0,1.2-0.1,1.6-0.2c0.9-0.2,1.1-1.1,1.3-2.4c0.2-1.8,0.2-5.3,0.2-9.2V900z"/>
		<path d="M437.9,900c0-6.6,0-7.8-0.1-9.2c-0.1-1.5-0.4-2.2-1.9-2.5c-0.3-0.1-1.1-0.1-1.7-0.1c-0.5,0-0.7-0.1-0.7-0.4
			c0-0.3,0.3-0.4,1-0.4c2.3,0,5,0.1,5.9,0.1c1.5,0,4.8-0.1,6.1-0.1c2.7,0,5.6,0.3,8,1.9c1.2,0.8,2.9,3,2.9,5.9
			c0,3.2-1.3,6.2-5.7,9.7c3.9,4.9,6.9,8.7,9.4,11.4c2.4,2.5,4.2,2.8,4.9,3c0.5,0.1,0.9,0.1,1.2,0.1c0.3,0,0.5,0.1,0.5,0.3
			c0,0.3-0.3,0.4-0.8,0.4h-4.1c-2.4,0-3.5-0.2-4.6-0.8c-1.9-1-3.5-3-5.9-6.4c-1.7-2.4-3.7-5.3-4.3-6c-0.2-0.3-0.5-0.3-0.8-0.3
			l-3.8-0.1c-0.2,0-0.3,0.1-0.3,0.3v0.6c0,4,0,7.5,0.2,9.3c0.1,1.3,0.4,2.2,1.7,2.4c0.7,0.1,1.6,0.2,2.1,0.2c0.3,0,0.5,0.1,0.5,0.3
			c0,0.3-0.3,0.4-0.9,0.4c-2.5,0-5.7-0.1-6.4-0.1c-0.8,0-3.6,0.1-5.3,0.1c-0.6,0-0.9-0.1-0.9-0.4c0-0.2,0.2-0.3,0.7-0.3
			c0.6,0,1.2-0.1,1.6-0.2c0.9-0.2,1.1-1.1,1.3-2.4c0.2-1.8,0.2-5.3,0.2-9.2V900z M443,903.4c0,0.5,0.1,0.7,0.4,0.8
			c0.9,0.3,2.2,0.4,3.3,0.4c1.7,0,2.3-0.2,3.1-0.7c1.3-1,2.6-3,2.6-6.5c0-6.2-4.1-7.9-6.6-7.9c-1.1,0-1.9,0-2.3,0.2
			c-0.3,0.1-0.4,0.3-0.4,0.6V903.4z"/>
		<path d="M483.7,900c0-6.6,0-7.8-0.1-9.2c-0.1-1.5-0.4-2.2-1.9-2.5c-0.3-0.1-1.1-0.1-1.7-0.1c-0.5,0-0.7-0.1-0.7-0.4
			c0-0.3,0.3-0.4,1-0.4c2.3,0,5,0.1,6.2,0.1c1.3,0,4.1-0.1,6.7-0.1c5.4,0,12.7,0,17.4,4.9c2.2,2.3,4.2,5.9,4.2,11
			c0,5.5-2.3,9.6-4.7,12.1c-2,2-6.5,5.1-14.5,5.1c-1.6,0-3.3-0.1-5-0.3c-1.6-0.1-3.2-0.3-4.3-0.3c-0.5,0-1.4,0-2.5,0
			c-1,0-2.1,0.1-3,0.1c-0.6,0-0.9-0.1-0.9-0.4c0-0.2,0.2-0.3,0.7-0.3c0.6,0,1.2-0.1,1.6-0.2c0.9-0.2,1.1-1.1,1.3-2.4
			c0.2-1.8,0.2-5.3,0.2-9.2V900z M489.1,904.8c0,4.6,0,7.9,0.1,8.8c0,1.1,0.1,2.8,0.5,3.3c0.6,0.8,2.3,1.7,5.7,1.7
			c4.4,0,7.4-0.9,10-3.1c2.8-2.4,3.6-6.3,3.6-10.8c0-5.5-2.3-9.1-4.2-10.8c-4-3.8-8.9-4.3-12.3-4.3c-0.9,0-2.5,0.1-2.8,0.3
			c-0.4,0.2-0.5,0.4-0.5,0.9c0,1.5,0,5.2,0,8.7V904.8z"/>
		<path d="M523.8,900c0-6.6,0-7.8-0.1-9.2c-0.1-1.5-0.5-2.2-1.5-2.4c-0.5-0.1-1-0.2-1.6-0.2c-0.4,0-0.7-0.1-0.7-0.4
			c0-0.3,0.3-0.3,1-0.3c1.6,0,4.4,0.1,5.6,0.1c1.1,0,3.6-0.1,5.3-0.1c0.6,0,0.9,0.1,0.9,0.3c0,0.3-0.3,0.4-0.7,0.4
			c-0.4,0-0.8,0-1.3,0.1c-1.2,0.2-1.5,1-1.6,2.5c-0.1,1.4-0.1,2.6-0.1,9.2v7.6c0,4.2,0,7.6,0.2,9.5c0.1,1.2,0.4,2,1.7,2.1
			c0.6,0.1,1.6,0.2,2.2,0.2c0.5,0,0.7,0.1,0.7,0.3c0,0.3-0.3,0.4-0.8,0.4c-2.9,0-5.6-0.1-6.8-0.1c-1,0-3.7,0.1-5.5,0.1
			c-0.6,0-0.9-0.1-0.9-0.4c0-0.2,0.2-0.3,0.7-0.3c0.6,0,1.2-0.1,1.6-0.2c0.9-0.2,1.1-0.9,1.3-2.2c0.2-1.8,0.2-5.3,0.2-9.5V900z"/>
		<path d="M541.1,919.7c-0.7-0.3-0.8-0.5-0.8-1.5c0-2.4,0.2-5,0.2-5.7c0-0.6,0.2-1.1,0.5-1.1c0.4,0,0.4,0.4,0.4,0.7
			c0,0.6,0.2,1.5,0.4,2.2c1,3.2,3.5,4.4,6.2,4.4c3.9,0,5.8-2.6,5.8-4.9c0-2.1-0.7-4.1-4.3-6.9l-2-1.6c-4.8-3.7-6.4-6.8-6.4-10.3
			c0-4.8,4-8.2,10-8.2c2.8,0,4.6,0.4,5.8,0.7c0.4,0.1,0.6,0.2,0.6,0.5c0,0.6-0.2,1.8-0.2,5.2c0,1-0.1,1.3-0.5,1.3
			c-0.3,0-0.4-0.3-0.4-0.8c0-0.4-0.2-1.7-1.1-2.9c-0.7-0.8-1.9-2.1-4.7-2.1c-3.2,0-5.2,1.9-5.2,4.5c0,2,1,3.5,4.6,6.2l1.2,0.9
			c5.2,3.9,7.1,6.9,7.1,11.1c0,2.5-1,5.5-4.1,7.6c-2.2,1.4-4.6,1.8-6.9,1.8C544.9,920.8,542.9,920.5,541.1,919.7z"/>
		<path d="M574.5,889.8L568,890c-2.5,0.1-3.6,0.3-4.2,1.3c-0.4,0.6-0.7,1.2-0.7,1.5c-0.1,0.3-0.2,0.5-0.5,0.5
			c-0.3,0-0.4-0.2-0.4-0.7c0-0.7,0.8-4.6,0.9-5c0.1-0.6,0.3-0.8,0.5-0.8c0.3,0,0.8,0.4,1.9,0.5c1.3,0.1,2.9,0.2,4.3,0.2H587
			c1.4,0,2.3-0.1,3-0.2c0.7-0.1,1-0.2,1.2-0.2c0.3,0,0.3,0.3,0.3,0.9c0,0.9-0.1,3.9-0.1,5c0,0.4-0.1,0.7-0.4,0.7
			c-0.3,0-0.4-0.2-0.5-0.9l0-0.5c-0.1-1.1-1.3-2.3-5.1-2.4l-5.5-0.1v17.8c0,4,0,7.4,0.2,9.3c0.1,1.2,0.4,2.2,1.7,2.3
			c0.6,0.1,1.6,0.2,2.2,0.2c0.5,0,0.7,0.1,0.7,0.3c0,0.3-0.3,0.4-0.8,0.4c-2.9,0-5.6-0.1-6.8-0.1c-1,0-3.7,0.1-5.5,0.1
			c-0.6,0-0.9-0.1-0.9-0.4c0-0.2,0.2-0.3,0.7-0.3c0.6,0,1.2-0.1,1.6-0.2c0.9-0.2,1.1-1.1,1.3-2.4c0.2-1.8,0.2-5.3,0.2-9.2V889.8z"/>
		<path d="M599.5,900c0-6.6,0-7.8-0.1-9.2c-0.1-1.5-0.4-2.2-1.9-2.5c-0.3-0.1-1.1-0.1-1.7-0.1c-0.5,0-0.7-0.1-0.7-0.4
			c0-0.3,0.3-0.4,1-0.4c2.3,0,5,0.1,5.9,0.1c1.5,0,4.8-0.1,6.1-0.1c2.7,0,5.6,0.3,8,1.9c1.2,0.8,2.9,3,2.9,5.9
			c0,3.2-1.3,6.2-5.7,9.7c3.9,4.9,6.9,8.7,9.4,11.4c2.4,2.5,4.2,2.8,4.9,3c0.5,0.1,0.9,0.1,1.2,0.1c0.3,0,0.5,0.1,0.5,0.3
			c0,0.3-0.3,0.4-0.8,0.4h-4.1c-2.4,0-3.5-0.2-4.6-0.8c-1.9-1-3.5-3-5.9-6.4c-1.7-2.4-3.7-5.3-4.3-6c-0.2-0.3-0.5-0.3-0.8-0.3
			l-3.8-0.1c-0.2,0-0.3,0.1-0.3,0.3v0.6c0,4,0,7.5,0.2,9.3c0.1,1.3,0.4,2.2,1.7,2.4c0.7,0.1,1.6,0.2,2.1,0.2c0.3,0,0.5,0.1,0.5,0.3
			c0,0.3-0.3,0.4-0.9,0.4c-2.5,0-5.7-0.1-6.4-0.1c-0.8,0-3.6,0.1-5.3,0.1c-0.6,0-0.9-0.1-0.9-0.4c0-0.2,0.2-0.3,0.7-0.3
			c0.6,0,1.2-0.1,1.6-0.2c0.9-0.2,1.1-1.1,1.3-2.4c0.2-1.8,0.2-5.3,0.2-9.2V900z M604.7,903.4c0,0.5,0.1,0.7,0.4,0.8
			c0.9,0.3,2.2,0.4,3.3,0.4c1.7,0,2.3-0.2,3.1-0.7c1.3-1,2.6-3,2.6-6.5c0-6.2-4.1-7.9-6.6-7.9c-1.1,0-1.9,0-2.3,0.2
			c-0.3,0.1-0.4,0.3-0.4,0.6V903.4z"/>
		<path d="M632.3,900c0-6.6,0-7.8-0.1-9.2c-0.1-1.5-0.5-2.2-1.5-2.4c-0.5-0.1-1-0.2-1.6-0.2c-0.4,0-0.7-0.1-0.7-0.4
			c0-0.3,0.3-0.3,1-0.3c1.6,0,4.4,0.1,5.6,0.1c1.1,0,3.6-0.1,5.3-0.1c0.6,0,0.9,0.1,0.9,0.3c0,0.3-0.3,0.4-0.7,0.4
			c-0.4,0-0.8,0-1.3,0.1c-1.2,0.2-1.5,1-1.6,2.5c-0.1,1.4-0.1,2.6-0.1,9.2v7.6c0,4.2,0,7.6,0.2,9.5c0.1,1.2,0.4,2,1.7,2.1
			c0.6,0.1,1.6,0.2,2.2,0.2c0.5,0,0.7,0.1,0.7,0.3c0,0.3-0.3,0.4-0.8,0.4c-2.9,0-5.6-0.1-6.8-0.1c-1,0-3.7,0.1-5.5,0.1
			c-0.6,0-0.9-0.1-0.9-0.4c0-0.2,0.2-0.3,0.7-0.3c0.6,0,1.2-0.1,1.6-0.2c0.9-0.2,1.1-0.9,1.3-2.2c0.2-1.8,0.2-5.3,0.2-9.5V900z"/>
		<path d="M651.9,900c0-6.6,0-7.8-0.1-9.2c-0.1-1.5-0.4-2.2-1.9-2.5c-0.3-0.1-1.1-0.1-1.7-0.1c-0.5,0-0.7-0.1-0.7-0.4
			c0-0.3,0.3-0.4,1-0.4c2.3,0,5,0.1,5.9,0.1c2.1,0,3.8-0.1,5.3-0.1c7.9,0,9.2,4.2,9.2,6.5c0,3.6-2,5.7-4.4,7.6
			c3.6,1.2,7.9,4.3,7.9,9.4c0,4.6-3.6,9.5-11.6,9.5c-0.5,0-1.8-0.1-3-0.1c-1.3-0.1-2.6-0.1-3.3-0.1c-0.5,0-1.4,0-2.5,0
			c-1,0-2.1,0.1-3,0.1c-0.6,0-0.9-0.1-0.9-0.4c0-0.2,0.2-0.3,0.7-0.3c0.6,0,1.2-0.1,1.6-0.2c0.9-0.2,1.1-1.1,1.3-2.4
			c0.2-1.8,0.2-5.3,0.2-9.2V900z M657.1,900.7c0,0.3,0.1,0.4,0.3,0.5c0.4,0.1,1,0.1,2,0.1c1.4,0,2.4-0.2,3.1-0.8
			c1.1-0.9,1.8-2.5,1.8-4.6c0-2.9-1.7-6.7-5.4-6.7c-0.6,0-1,0-1.4,0.1c-0.3,0.1-0.4,0.3-0.4,0.7V900.7z M662.8,904.2
			c-0.9-0.6-1.9-1-3.6-1c-0.8,0-1.2,0-1.9,0c-0.2,0-0.3,0.1-0.3,0.3v10.3c0,2.9,0.1,3.6,1.5,4.2c1.2,0.5,2.2,0.5,3.2,0.5
			c2,0,5.3-1,5.3-5.6C667.1,910.2,666.1,906.5,662.8,904.2z"/>
		<path d="M680.7,900c0-6.6,0-7.8-0.1-9.2c-0.1-1.5-0.4-2.2-1.9-2.5c-0.3-0.1-1.1-0.1-1.7-0.1c-0.5,0-0.7-0.1-0.7-0.4
			c0-0.3,0.3-0.4,1-0.4c2.3,0,5,0.1,6.3,0.1c1,0,3.8-0.1,5.3-0.1c0.7,0,1,0.1,1,0.4c0,0.3-0.3,0.4-0.7,0.4c-0.5,0-0.7,0-1.3,0.1
			c-1.2,0.2-1.5,1-1.6,2.5c-0.1,1.4-0.1,2.6-0.1,9.2v6.1c0,6.3,1.3,8.9,3.4,10.7c2,1.6,3.9,1.8,5.4,1.8c1.9,0,4.3-0.6,6-2.3
			c2.4-2.4,2.5-6.3,2.5-10.8V900c0-6.6,0-7.8-0.1-9.2c-0.1-1.5-0.4-2.2-1.9-2.5c-0.3-0.1-1.1-0.1-1.6-0.1c-0.5,0-0.7-0.1-0.7-0.4
			c0-0.3,0.3-0.4,0.9-0.4c2.2,0,4.9,0.1,5,0.1c0.5,0,3.3-0.1,4.9-0.1c0.6,0,0.9,0.1,0.9,0.4c0,0.3-0.3,0.4-0.8,0.4
			c-0.5,0-0.7,0-1.3,0.1c-1.2,0.2-1.5,1-1.6,2.5c-0.1,1.4-0.1,2.6-0.1,9.2v4.6c0,4.8-0.5,9.9-4.1,13.1c-3.1,2.6-6.2,3.1-9,3.1
			c-2.3,0-6.5-0.1-9.6-3c-2.2-2-3.9-5.2-3.9-11.5V900z"/>
		<path d="M725.3,889.8l-6.5,0.2c-2.5,0.1-3.6,0.3-4.2,1.3c-0.4,0.6-0.7,1.2-0.7,1.5c-0.1,0.3-0.2,0.5-0.5,0.5
			c-0.3,0-0.4-0.2-0.4-0.7c0-0.7,0.8-4.6,0.9-5c0.1-0.6,0.3-0.8,0.5-0.8c0.3,0,0.8,0.4,1.9,0.5c1.3,0.1,2.9,0.2,4.3,0.2h17.2
			c1.4,0,2.3-0.1,3-0.2c0.7-0.1,1-0.2,1.2-0.2c0.3,0,0.3,0.3,0.3,0.9c0,0.9-0.1,3.9-0.1,5c0,0.4-0.1,0.7-0.4,0.7
			c-0.3,0-0.4-0.2-0.5-0.9l0-0.5c-0.1-1.1-1.3-2.3-5.1-2.4l-5.5-0.1v17.8c0,4,0,7.4,0.2,9.3c0.1,1.2,0.4,2.2,1.7,2.3
			c0.6,0.1,1.6,0.2,2.2,0.2c0.5,0,0.7,0.1,0.7,0.3c0,0.3-0.3,0.4-0.8,0.4c-2.9,0-5.6-0.1-6.8-0.1c-1,0-3.7,0.1-5.5,0.1
			c-0.6,0-0.9-0.1-0.9-0.4c0-0.2,0.2-0.3,0.7-0.3c0.6,0,1.2-0.1,1.6-0.2c0.9-0.2,1.1-1.1,1.3-2.4c0.2-1.8,0.2-5.3,0.2-9.2V889.8z"/>
		<path d="M750.4,900c0-6.6,0-7.8-0.1-9.2c-0.1-1.5-0.5-2.2-1.5-2.4c-0.5-0.1-1-0.2-1.6-0.2c-0.4,0-0.7-0.1-0.7-0.4
			c0-0.3,0.3-0.3,1-0.3c1.6,0,4.4,0.1,5.6,0.1c1.1,0,3.6-0.1,5.3-0.1c0.6,0,0.9,0.1,0.9,0.3c0,0.3-0.3,0.4-0.7,0.4s-0.8,0-1.3,0.1
			c-1.2,0.2-1.5,1-1.6,2.5c-0.1,1.4-0.1,2.6-0.1,9.2v7.6c0,4.2,0,7.6,0.2,9.5c0.1,1.2,0.4,2,1.7,2.1c0.6,0.1,1.6,0.2,2.2,0.2
			c0.5,0,0.7,0.1,0.7,0.3c0,0.3-0.3,0.4-0.8,0.4c-2.9,0-5.6-0.1-6.8-0.1c-1,0-3.7,0.1-5.5,0.1c-0.6,0-0.9-0.1-0.9-0.4
			c0-0.2,0.2-0.3,0.7-0.3c0.6,0,1.2-0.1,1.6-0.2c0.9-0.2,1.1-0.9,1.3-2.2c0.2-1.8,0.2-5.3,0.2-9.5V900z"/>
		<path d="M764.8,903.8c0-7.4,4.9-17,17.9-17c10.8,0,17.5,6.3,17.5,16.2s-6.9,17.8-18,17.8C769.9,920.8,764.8,911.5,764.8,903.8z
			 M794.2,904.6c0-9.7-5.6-15.8-12.7-15.8c-5,0-10.7,2.8-10.7,13.6c0,9,5,16.2,13.3,16.2C787.2,918.7,794.2,917.2,794.2,904.6z"/>
		<path d="M811.8,914.3c0.1,3.4,0.7,4.5,1.5,4.8c0.7,0.3,1.6,0.3,2.3,0.3c0.5,0,0.7,0.1,0.7,0.3c0,0.3-0.4,0.4-1,0.4
			c-2.8,0-4.6-0.1-5.4-0.1c-0.4,0-2.4,0.1-4.7,0.1c-0.6,0-1,0-1-0.4c0-0.3,0.3-0.3,0.7-0.3c0.6,0,1.3,0,2-0.2
			c1.1-0.3,1.3-1.6,1.3-5.4l0.4-25.7c0-0.9,0.1-1.5,0.6-1.5c0.5,0,0.9,0.6,1.6,1.3c0.5,0.6,7.1,7.6,13.5,13.9c3,2.9,8.8,9.2,9.5,9.9
			h0.2l-0.4-19.5c0-2.6-0.4-3.5-1.5-3.9c-0.7-0.3-1.7-0.3-2.3-0.3c-0.5,0-0.7-0.1-0.7-0.4c0-0.3,0.5-0.4,1.1-0.4
			c2.3,0,4.3,0.1,5.3,0.1c0.5,0,2.1-0.1,4.3-0.1c0.6,0,1,0,1,0.4c0,0.3-0.3,0.4-0.8,0.4c-0.4,0-0.8,0-1.3,0.1
			c-1.2,0.3-1.6,1.3-1.6,3.7l-0.5,27.4c0,1-0.2,1.3-0.6,1.3c-0.5,0-1-0.5-1.5-1c-2.7-2.6-8.3-8.3-12.8-12.8
			c-4.7-4.7-9.5-10.1-10.3-10.9h-0.1L811.8,914.3z"/>
	</g>
</g>
</svg>
